<svg id="Capa_1" data-name="Capa 1" xmlns="http://www.w3.org/2000/svg" viewBox="0 0 833.39 307.64"><defs><style>.cls-1{fill:#f0d100;}.cls-2{fill:#152f4f;}</style></defs><title>logo</title><rect class="cls-1" width="833.39" height="307.64"/><path class="cls-2" d="M254.31,123.27a3.75,3.75,0,0,0-2.3-3.75c-6.3-3.55-12.52-7.29-18.86-10.79a3.67,3.67,0,0,1-2.2-3.84c.15-3.79-.07-7.58.08-11.38a4.26,4.26,0,0,0-2.56-4.56c-6.2-3.35-12.19-7-18.32-10.48-1.61-.89-2.61-1.91-2.2-3.77,1.69-7.49-1.81-11.6-8.43-14.55-5.51-2.46-10.59-5.87-15.77-9a4.37,4.37,0,0,0-5.25-.08C171.3,55.4,164,59.61,156.6,63.72A4.2,4.2,0,0,0,154.15,68c.08,28.95.05,57.88.05,86.83v26.8a10.77,10.77,0,0,1-6.25-.18V154.84c0-28.93,0-57.88.05-86.81a4.23,4.23,0,0,0-2.45-4.32c-7.38-4.09-14.7-8.31-21.91-12.67a4.37,4.37,0,0,0-5.25.08c-5.18,3.15-10.26,6.57-15.76,9-6.64,3-10.14,7.06-8.45,14.55.42,1.88-.59,2.88-2.2,3.79-6.14,3.42-12.12,7.12-18.3,10.46a4.27,4.27,0,0,0-2.58,4.58c.15,3.79-.07,7.59.08,11.38a3.66,3.66,0,0,1-2.2,3.82c-6.34,3.52-12.56,7.24-18.86,10.8a3.76,3.76,0,0,0-2.3,3.75q.13,31.53,0,63.08a4,4,0,0,0,2.41,4c6.25,3.45,12.35,7.16,18.61,10.61A3.9,3.9,0,0,1,71.2,205c-.17,3.79.08,7.59-.1,11.36a4,4,0,0,0,2.45,4.34c4,2.1,7.69,5,11.85,6.67,7,2.83,10.44,7.27,8.83,15-.34,1.58.37,2.53,1.81,3.35q11.59,6.54,23,13.31a3.47,3.47,0,0,0,4.06,0c7.34-4.36,14.72-8.68,22.19-12.82a4.43,4.43,0,0,0,2.67-4.53q-.08-26.15-.05-52.32a28.55,28.55,0,0,0,6.25-.07q0,26.2-.05,52.4a4.42,4.42,0,0,0,2.67,4.51c7.48,4.16,14.85,8.48,22.19,12.82a3.45,3.45,0,0,0,4.06,0q11.47-6.76,23-13.31c1.44-.8,2.15-1.78,1.81-3.34-1.61-7.71,1.83-12.14,8.83-15,4.16-1.71,7.83-4.59,11.85-6.67a4,4,0,0,0,2.45-4.34c-.18-3.79.07-7.59-.1-11.38a3.88,3.88,0,0,1,2.33-4.06c6.25-3.45,12.35-7.16,18.61-10.63a4,4,0,0,0,2.41-4Q254.18,154.82,254.31,123.27ZM97.76,98a3.59,3.59,0,0,1,4,3.74c0,2.43-1.46,3.7-3.87,3.92-2.38-.23-3.84-1.51-3.82-3.94A3.52,3.52,0,0,1,97.76,98ZM98,211.85c-2.35-.23-3.91-1.41-3.91-3.86a3.83,3.83,0,0,1,7.66-.2C101.89,210.25,100.35,211.49,98,211.85ZM140.66,238a3.53,3.53,0,0,1-2,3.64c-5.31,2.9-10.56,6-15.76,9.07a3.17,3.17,0,0,1-3.79-.05q-7.64-4.6-15.45-8.92a3.49,3.49,0,0,1-2.1-3.55c.1-6.39.07-12.79,0-19.18a3.81,3.81,0,0,1,1.71-3.49,9.31,9.31,0,1,0-10.81,0c3.29,2.41,1,5.45,2,8.85C89,221.15,84.2,218.4,79.44,215.7a1.72,1.72,0,0,1-1-1.81,4.27,4.27,0,0,0,0-1.31C76.95,205,79.61,200,87.07,197.2c3.79-1.41,7.19-5.43,10.78-5.45s7,3.91,10.81,5.4c7.21,2.83,10.38,7.56,8.82,15.32a21.39,21.39,0,0,0,0,5.18c.15,3.24-.05,5.9-3.1,8.36-4.09,3.29-3.44,9.71.55,13.21a9.35,9.35,0,0,0,13.13-.77c3.55-4,3.34-10.14-.94-13.26-2.11-1.53-2.46-3.13-2.43-5.38.08-6.39-.05-12.79.07-19.18a3.71,3.71,0,0,0-2.18-3.81c-6.34-3.54-12.56-7.27-18.87-10.81a3.46,3.46,0,0,1-2.08-3.55c.13-5.53.08-11.06,0-16.59a3.68,3.68,0,0,1,1.76-3.42,9.34,9.34,0,0,0,1.41-14,9.53,9.53,0,0,0-13.66,0,9.32,9.32,0,0,0,1.37,14,3.67,3.67,0,0,1,1.78,3.44q-.1,8.3,0,16.58a3.31,3.31,0,0,1-1.78,3.42q-8.1,4.53-16,9.25a3,3,0,0,1-3.54-.1c-5.21-3.08-10.44-6.14-15.76-9.07a3.53,3.53,0,0,1-2-3.62c.07-11.06.08-22.13,0-33.17a3.74,3.74,0,0,1,2.25-3.81q5.68-3.12,11.25-6.49a3.35,3.35,0,0,1,3.55-.12A9.17,9.17,0,0,0,85,133.21a9.33,9.33,0,1,0-18.15-3.74,3.85,3.85,0,0,1-2.36,3.4c-2.93,1.58-5.8,3.32-9.27,5.33,0-4.43,0-8.47,0-12.47,0-1,1-1.32,1.74-1.74,5.33-3.1,10.69-6.14,16-9.3a3,3,0,0,1,3.54,0c5,3,10,6,15.19,8.77,1.84,1,2.31,2.21,2.6,4.27.72,5.15-1.26,8.06-5.9,10.24-5.28,2.46-10.14,5.78-15.27,8.6a3.46,3.46,0,0,0-2,3.57c.13,5.51,0,11,.07,16.58a3.34,3.34,0,0,1-1.59,3.17c-3.75,2.67-5,6.55-3.72,10.49a9.35,9.35,0,0,0,17.72.3c1.44-4.11.22-8.11-3.65-10.81a3.29,3.29,0,0,1-1.54-3.18c.05-4.11.12-8.23,0-12.35a3.36,3.36,0,0,1,2.06-3.54c6.42-3.57,12.74-7.34,19.14-11,1.48-.82,2.41-1.76,2-3.55,0-.2,0-.44,0-.65-1.63-8,1.46-13.13,9.15-16.08,4.09-1.58,7.69-4.41,11.6-6.5a3.89,3.89,0,0,0,2.36-4c-.13-6.72,0-13.44-.08-20.17a3.88,3.88,0,0,1,1.79-3.74,9.12,9.12,0,0,0,1.49-13.9,9.34,9.34,0,0,0-13.61-.13A9.15,9.15,0,0,0,115.57,85a3.86,3.86,0,0,1,1.89,3.64q-.13,8.3,0,16.58a3.28,3.28,0,0,1-1.93,3.32q-7.95,4.43-15.74,9.1a3.27,3.27,0,0,1-3.84,0c-5.2-3.1-10.44-6.15-15.74-9.09-1.42-.8-1.63-1.84-1.89-3.35-1.39-7.71,1.12-13,8.8-15.61,2.3-.79,4.31-2.4,7-3.92-.17,3.59,1.27,6.69-2.43,9.37-4.21,3.07-4.09,9.55-.44,13.29a9.26,9.26,0,0,0,13.59-.22c3.54-3.84,3.34-10.12-.87-13.29-2.06-1.58-2.4-3.22-2.36-5.46q.13-8.93,0-17.89a3.26,3.26,0,0,1,1.91-3.32c5.3-2.93,10.54-6,15.76-9.07a2.94,2.94,0,0,1,3.49-.12c5.3,3.17,10.63,6.27,16,9.25a3.29,3.29,0,0,1,1.88,3.35q-.08,22.28,0,44.55a4.16,4.16,0,0,1,0,.65v60q-6.49-3.87-13.11-7.53a3.24,3.24,0,0,1-1.91-3.32q.15-8.27,0-16.58a3.86,3.86,0,0,1,1.91-3.64,9.15,9.15,0,0,0,1.22-13.95,9.31,9.31,0,0,0-13.59.15,9.12,9.12,0,0,0,1.49,13.9,3.9,3.9,0,0,1,1.79,3.72c-.07,6.72.05,13.44-.08,20.17a3.87,3.87,0,0,0,2.36,4c3.91,2.1,7.49,4.93,11.58,6.5s6.84,3.7,8.33,6.55V197.2a5.66,5.66,0,0,1,.05.79C140.58,211.31,140.61,224.64,140.66,238ZM94.09,154.85A3.54,3.54,0,0,1,98,151c2.38,0,3.6,1.54,3.89,3.89-.34,2.31-1.58,3.82-4,3.79A3.54,3.54,0,0,1,94.09,154.85Zm27.27,73.54a3.53,3.53,0,0,1,3.54,3.87,3.59,3.59,0,0,1-4,3.81c-2.38-.07-3.65-1.61-3.69-4.22C117.61,229.63,118.92,228.24,121.37,228.39Zm-49-97.78A3.53,3.53,0,0,1,76,126.49c2.38-.17,3.77,1.31,4.11,3.79-.23,2.25-1.31,3.82-3.82,3.86A3.47,3.47,0,0,1,72.4,130.62Zm6.2,46.92c-.17,2.38-1.39,3.92-3.82,3.94a3.84,3.84,0,0,1-.22-7.68C77,173.71,78.3,175.12,78.6,177.53Zm38.69-100a3.81,3.81,0,0,1,7.61-.13c.08,2.4-1.37,3.72-3.62,4.06C118.75,81.23,117.29,80,117.29,77.55Zm4.51,64.65c-2.26-.34-3.72-1.66-3.64-4.06a3.57,3.57,0,0,1,3.74-3.7,3.53,3.53,0,0,1,3.87,3.84C125.79,140.74,124.33,142,121.8,142.2ZM204.39,98a3.54,3.54,0,0,1,3.69,3.74c0,2.41-1.44,3.7-3.82,3.94-2.41-.23-3.91-1.51-3.86-3.94A3.57,3.57,0,0,1,204.39,98Zm-.23,113.87c-2.35-.37-3.89-1.61-3.75-4.06a3.83,3.83,0,0,1,7.66.18C208.06,210.44,206.5,211.63,204.16,211.86ZM247,182.31a3.5,3.5,0,0,1-2,3.62c-5.31,2.93-10.54,6-15.76,9.07a3,3,0,0,1-3.54.12q-7.95-4.75-16-9.25a3.31,3.31,0,0,1-1.78-3.42q.1-8.3,0-16.58a3.67,3.67,0,0,1,1.78-3.44,9.32,9.32,0,0,0,1.37-14,9.53,9.53,0,0,0-13.66,0,9.34,9.34,0,0,0,1.41,14,3.72,3.72,0,0,1,1.76,3.44c-.08,5.53-.13,11.06,0,16.58a3.47,3.47,0,0,1-2.08,3.57c-6.32,3.54-12.54,7.26-18.87,10.8a3.73,3.73,0,0,0-2.18,3.82c.12,6.39,0,12.79.07,19.18,0,2.25-.32,3.84-2.43,5.38-4.27,3.1-4.49,9.27-.94,13.24a9.34,9.34,0,0,0,13.13.79c4-3.52,4.64-9.92.55-13.23-3.05-2.46-3.25-5.11-3.1-8.35a21.53,21.53,0,0,0,0-5.2c-1.56-7.76,1.61-12.49,8.82-15.3,3.79-1.49,7.22-5.41,10.81-5.41s7,4,10.78,5.46c7.46,2.78,10.12,7.79,8.67,15.39a4.75,4.75,0,0,0,0,1.29,1.7,1.7,0,0,1-1,1.81c-4.76,2.72-9.52,5.46-15.05,8.63,1-3.42-1.27-6.44,2-8.85a9.31,9.31,0,1,0-10.81,0,3.78,3.78,0,0,1,1.71,3.47c-.07,6.4-.1,12.79,0,19.19a3.49,3.49,0,0,1-2.1,3.55q-7.79,4.32-15.45,8.92a3.19,3.19,0,0,1-3.79.05q-7.79-4.7-15.76-9.09a3.51,3.51,0,0,1-2-3.62c.05-13.34.08-26.67,0-40a6,6,0,0,1,.05-.79V186.9c1.48-2.87,4.26-5,8.33-6.6s7.68-4.39,11.58-6.49a3.93,3.93,0,0,0,2.38-4.06c-.15-6.72,0-13.44-.1-20.15a3.94,3.94,0,0,1,1.79-3.74A9.12,9.12,0,0,0,187,132a9.31,9.31,0,0,0-13.59-.13,9.15,9.15,0,0,0,1.22,13.95,3.84,3.84,0,0,1,1.91,3.64c-.1,5.53-.1,11,0,16.58a3.22,3.22,0,0,1-1.91,3.3c-4.41,2.46-8.78,5-13.11,7.54V116.79a4.06,4.06,0,0,1,0-.65q.1-22.28,0-44.55a3.27,3.27,0,0,1,1.88-3.34c5.4-3,10.73-6.08,16-9.25a2.94,2.94,0,0,1,3.49.1c5.21,3.1,10.46,6.15,15.76,9.07a3.27,3.27,0,0,1,1.91,3.34c-.08,6-.08,11.92,0,17.89,0,2.25-.3,3.89-2.36,5.45-4.21,3.17-4.41,9.47-.87,13.29a9.26,9.26,0,0,0,13.59.22c3.65-3.72,3.77-10.21-.44-13.28-3.7-2.7-2.26-5.8-2.43-9.37,2.65,1.51,4.66,3.12,7,3.91,7.68,2.65,10.19,7.9,8.8,15.62-.27,1.51-.47,2.53-1.89,3.34-5.3,3-10.54,6-15.74,9.09a3.3,3.3,0,0,1-3.84.05q-7.79-4.7-15.74-9.12a3.26,3.26,0,0,1-1.93-3.3q.18-8.3,0-16.58a3.86,3.86,0,0,1,1.89-3.64,9.15,9.15,0,0,0,1.24-13.95,9.32,9.32,0,0,0-13.61.13,9.11,9.11,0,0,0,1.51,13.9,3.89,3.89,0,0,1,1.78,3.72c-.07,6.72.05,13.44-.08,20.17a3.87,3.87,0,0,0,2.36,4c3.91,2.1,7.51,4.93,11.6,6.5,7.69,3,10.78,8.06,9.15,16.09,0,.2,0,.44,0,.65-.37,1.78.57,2.72,2,3.55,6.4,3.62,12.72,7.39,19.14,11a3.38,3.38,0,0,1,2.06,3.55c-.13,4.12-.07,8.23,0,12.35a3.29,3.29,0,0,1-1.54,3.18c-3.87,2.7-5.1,6.7-3.65,10.81a9.35,9.35,0,0,0,17.72-.3c1.31-3.94,0-7.84-3.72-10.51a3.32,3.32,0,0,1-1.59-3.15c.05-5.53-.07-11.06.07-16.59a3.47,3.47,0,0,0-2-3.57c-5.13-2.82-10-6.14-15.27-8.6-4.64-2.18-6.62-5.08-5.9-10.24.28-2,.75-3.25,2.6-4.27,5.15-2.78,10.17-5.77,15.19-8.77a3,3,0,0,1,3.54,0c5.3,3.17,10.66,6.22,16,9.3.74.44,1.73.7,1.74,1.74.05,4,0,8,0,12.47-3.45-2-6.34-3.74-9.27-5.31a3.89,3.89,0,0,1-2.36-3.4,9.33,9.33,0,1,0-18.15,3.74c1.83,5.43,7.41,7.9,12.84,5.5a3.32,3.32,0,0,1,3.55.13c3.7,2.23,7.46,4.41,11.25,6.47a3.76,3.76,0,0,1,2.25,3.81C246.9,160.2,246.92,171.26,247,182.31Zm-42.71-23.58c-2.4.05-3.64-1.48-4-3.77.28-2.35,1.51-3.89,3.89-3.89a3.83,3.83,0,0,1,.08,7.66ZM184.9,231.86c0,2.6-1.31,4.14-3.69,4.21a3.57,3.57,0,0,1-4-3.81,3.52,3.52,0,0,1,3.54-3.86C183.24,228.26,184.54,229.65,184.9,231.86Zm-8.52-93.57a3.53,3.53,0,0,1,3.87-3.84,3.56,3.56,0,0,1,3.74,3.7c.08,2.4-1.37,3.72-3.64,4C177.82,142,176.36,140.76,176.38,138.29Zm4.49-56.82c-2.25-.32-3.7-1.64-3.62-4a3.81,3.81,0,0,1,7.61.13C184.86,80,183.4,81.23,180.87,81.47Zm46.72,92.34a3.84,3.84,0,0,1-.22,7.68c-2.43,0-3.65-1.56-3.82-4C223.85,175.14,225.14,173.73,227.59,173.81Zm2.16-43.18a3.45,3.45,0,0,1-3.84,3.5c-2.51,0-3.59-1.61-3.82-3.86.34-2.48,1.73-3.94,4.11-3.79A3.55,3.55,0,0,1,229.75,130.63Z"/><path class="cls-2" d="M320.9,193.55a5.39,5.39,0,0,1-.83,1.75,3.17,3.17,0,0,1-1.66,1,13.33,13.33,0,0,1-3.13.45q-2,.1-5.17.1-2.55,0-4.37,0t-3.1-.16a10.49,10.49,0,0,1-2.07-.38,4.86,4.86,0,0,1-1.34-.64,2.64,2.64,0,0,1-.83-.93,7.94,7.94,0,0,1-.54-1.37l-24.58-73.23a19.53,19.53,0,0,1-.92-3.64,2.12,2.12,0,0,1,.64-2,4.91,4.91,0,0,1,2.71-.83q1.92-.16,5.36-.16,2.94,0,4.6.13a10.32,10.32,0,0,1,2.55.45,2.18,2.18,0,0,1,1.25,1,9.89,9.89,0,0,1,.67,1.6l20.11,63.71h.06L330,116.94a6.65,6.65,0,0,1,.64-1.76,2.56,2.56,0,0,1,1.31-1.05,8.93,8.93,0,0,1,2.65-.51q1.72-.13,4.72-.13a41.58,41.58,0,0,1,4.57.19,3.33,3.33,0,0,1,2.23.92,2.5,2.5,0,0,1,.38,2.08,24,24,0,0,1-1,3.58Z"/><path class="cls-2" d="M374,194.19a1.77,1.77,0,0,1-.41,1.15,2.92,2.92,0,0,1-1.37.83,13.39,13.39,0,0,1-2.55.51,43.33,43.33,0,0,1-8.14,0,13.46,13.46,0,0,1-2.59-.51,2.91,2.91,0,0,1-1.37-.83,1.77,1.77,0,0,1-.42-1.15v-78a1.77,1.77,0,0,1,.42-1.15,2.92,2.92,0,0,1,1.4-.83,14.16,14.16,0,0,1,2.58-.51,34.79,34.79,0,0,1,4-.19,35.49,35.49,0,0,1,4.09.19,13.39,13.39,0,0,1,2.55.51,2.92,2.92,0,0,1,1.37.83,1.77,1.77,0,0,1,.41,1.15Z"/><path class="cls-2" d="M446.92,120.77a27,27,0,0,1-.16,3.16,8.61,8.61,0,0,1-.48,2.11,2.8,2.8,0,0,1-.8,1.18,1.65,1.65,0,0,1-1.05.38H423.75v66.59a1.77,1.77,0,0,1-.41,1.15,2.92,2.92,0,0,1-1.37.83,13.44,13.44,0,0,1-2.58.51,43,43,0,0,1-8.11,0,13.46,13.46,0,0,1-2.59-.51,2.91,2.91,0,0,1-1.37-.83,1.77,1.77,0,0,1-.42-1.15V127.6H386.21a1.61,1.61,0,0,1-1.09-.38,3,3,0,0,1-.77-1.18,8.55,8.55,0,0,1-.48-2.11,26.58,26.58,0,0,1-.16-3.16,28.12,28.12,0,0,1,.16-3.26,8.63,8.63,0,0,1,.48-2.14,2.71,2.71,0,0,1,.77-1.15,1.71,1.71,0,0,1,1.09-.35h58.22a1.75,1.75,0,0,1,1.05.35,2.56,2.56,0,0,1,.8,1.15,8.7,8.7,0,0,1,.48,2.14A28.53,28.53,0,0,1,446.92,120.77Z"/><path class="cls-2" d="M513.25,120.77a27,27,0,0,1-.16,3.16,8.61,8.61,0,0,1-.48,2.11,2.8,2.8,0,0,1-.8,1.18,1.65,1.65,0,0,1-1.05.38H490.08v66.59a1.77,1.77,0,0,1-.41,1.15,2.92,2.92,0,0,1-1.37.83,13.44,13.44,0,0,1-2.58.51,43,43,0,0,1-8.11,0,13.46,13.46,0,0,1-2.59-.51,2.91,2.91,0,0,1-1.37-.83,1.77,1.77,0,0,1-.42-1.15V127.6H452.54a1.61,1.61,0,0,1-1.09-.38,3,3,0,0,1-.77-1.18,8.55,8.55,0,0,1-.48-2.11,26.58,26.58,0,0,1-.16-3.16,28.12,28.12,0,0,1,.16-3.26,8.63,8.63,0,0,1,.48-2.14,2.71,2.71,0,0,1,.77-1.15,1.71,1.71,0,0,1,1.09-.35h58.22a1.75,1.75,0,0,1,1.05.35,2.56,2.56,0,0,1,.8,1.15,8.7,8.7,0,0,1,.48,2.14A28.53,28.53,0,0,1,513.25,120.77Z"/><path class="cls-2" d="M593.82,154.22a61.14,61.14,0,0,1-2.55,18.39,37.06,37.06,0,0,1-7.6,13.76A32.7,32.7,0,0,1,571.19,195,46.19,46.19,0,0,1,554,198a50.78,50.78,0,0,1-16.82-2.52,29.16,29.16,0,0,1-12-7.69A32.93,32.93,0,0,1,518,174.59a66.14,66.14,0,0,1-2.39-18.9,59.27,59.27,0,0,1,2.55-18,36.85,36.85,0,0,1,7.6-13.63,33.17,33.17,0,0,1,12.48-8.62,45.92,45.92,0,0,1,17.27-3,50.52,50.52,0,0,1,16.57,2.49,29.15,29.15,0,0,1,12,7.66,33.37,33.37,0,0,1,7.28,13.05A62.87,62.87,0,0,1,593.82,154.22Zm-17.62.89a63.14,63.14,0,0,0-1-11.84,25.5,25.5,0,0,0-3.48-9.13,16.62,16.62,0,0,0-6.54-5.87,22.46,22.46,0,0,0-10.21-2.07,20.89,20.89,0,0,0-10.34,2.33,19,19,0,0,0-6.7,6.23,25.71,25.71,0,0,0-3.61,9.1,55.44,55.44,0,0,0-1.05,11,65.7,65.7,0,0,0,1,12.16,26.19,26.19,0,0,0,3.45,9.23,15.84,15.84,0,0,0,6.51,5.84,23.21,23.21,0,0,0,10.28,2,21.12,21.12,0,0,0,10.34-2.3,18.55,18.55,0,0,0,6.7-6.26,26.39,26.39,0,0,0,3.61-9.23A57.06,57.06,0,0,0,576.2,155.12Z"/><path class="cls-2" d="M669.22,194.32a2.48,2.48,0,0,1-.26,1.18,2,2,0,0,1-1.21.8,12.13,12.13,0,0,1-2.81.45q-1.85.13-5,.13-2.68,0-4.28-.13a9.51,9.51,0,0,1-2.52-.48,2.73,2.73,0,0,1-1.31-.89,5,5,0,0,1-.64-1.31l-7.41-18.45q-1.34-3.13-2.62-5.55a17.72,17.72,0,0,0-2.84-4.05,10.38,10.38,0,0,0-3.61-2.46,12.48,12.48,0,0,0-4.72-.83h-5.23v31.47a1.77,1.77,0,0,1-.41,1.15,2.92,2.92,0,0,1-1.37.83,13.39,13.39,0,0,1-2.55.51,43.33,43.33,0,0,1-8.14,0,13.46,13.46,0,0,1-2.59-.51,2.69,2.69,0,0,1-1.34-.83,1.87,1.87,0,0,1-.38-1.15v-75a5.11,5.11,0,0,1,1.44-4.05,5.22,5.22,0,0,1,3.54-1.24H634.3q3.26,0,5.36.13t3.83.32a34.81,34.81,0,0,1,9,2.43,21.52,21.52,0,0,1,6.77,4.5,18.74,18.74,0,0,1,4.24,6.58,24.06,24.06,0,0,1,1.47,8.72,25.58,25.58,0,0,1-1.05,7.56,19.4,19.4,0,0,1-3.1,6.1,20.37,20.37,0,0,1-5,4.66,27.3,27.3,0,0,1-6.83,3.19,19,19,0,0,1,3.48,2.17,18.37,18.37,0,0,1,3.06,3.1,29.77,29.77,0,0,1,2.71,4.15,53.68,53.68,0,0,1,2.49,5.27l7,16.28q1,2.43,1.28,3.54A6.85,6.85,0,0,1,669.22,194.32Zm-21.64-56.05a12.26,12.26,0,0,0-1.85-6.89,10.07,10.07,0,0,0-6.06-4,23.25,23.25,0,0,0-2.9-.51,40.81,40.81,0,0,0-4.5-.19h-7.53v23.43h8.55a20.48,20.48,0,0,0,6.26-.86,12.47,12.47,0,0,0,4.47-2.43,9.92,9.92,0,0,0,2.68-3.73A12.63,12.63,0,0,0,647.58,138.26Z"/><path class="cls-2" d="M698.39,194.19a1.77,1.77,0,0,1-.41,1.15,2.92,2.92,0,0,1-1.37.83,13.39,13.39,0,0,1-2.55.51,43.33,43.33,0,0,1-8.14,0,13.46,13.46,0,0,1-2.59-.51,2.91,2.91,0,0,1-1.37-.83,1.77,1.77,0,0,1-.42-1.15v-78A1.77,1.77,0,0,1,682,115a2.92,2.92,0,0,1,1.4-.83,14.16,14.16,0,0,1,2.58-.51,34.79,34.79,0,0,1,4-.19,35.49,35.49,0,0,1,4.09.19,13.39,13.39,0,0,1,2.55.51A2.92,2.92,0,0,1,698,115a1.77,1.77,0,0,1,.41,1.15Z"/><path class="cls-2" d="M784.07,190.23a22.27,22.27,0,0,1,1,3.64,2.19,2.19,0,0,1-.51,2,4.16,4.16,0,0,1-2.49.83q-1.79.16-4.92.16t-5.07-.1a12.55,12.55,0,0,1-2.78-.38,2.53,2.53,0,0,1-1.34-.8,4.37,4.37,0,0,1-.64-1.34l-5.55-16.6h-31l-5.23,16.15a5.14,5.14,0,0,1-.67,1.5,2.73,2.73,0,0,1-1.34,1,9.84,9.84,0,0,1-2.62.48q-1.69.13-4.44.13a42.49,42.49,0,0,1-4.6-.19,3.51,3.51,0,0,1-2.3-.93,2.49,2.49,0,0,1-.45-2.07,20.8,20.8,0,0,1,1-3.58l25.47-73.29a6.43,6.43,0,0,1,.89-1.76,3.17,3.17,0,0,1,1.63-1,12.91,12.91,0,0,1,3.1-.45q2-.1,5.23-.09,3.77,0,6,.09a16.08,16.08,0,0,1,3.48.45,3.32,3.32,0,0,1,1.79,1.05,6.21,6.21,0,0,1,.92,1.92Zm-37.92-60.59h-.06L734.4,164.76h23.43Z"/><rect class="cls-1" width="833.39" height="307.64"/><path class="cls-2" d="M254.31,123.27a3.75,3.75,0,0,0-2.3-3.75c-6.3-3.55-12.52-7.29-18.86-10.79a3.67,3.67,0,0,1-2.2-3.84c.15-3.79-.07-7.58.08-11.38a4.26,4.26,0,0,0-2.56-4.56c-6.2-3.35-12.19-7-18.32-10.48-1.61-.89-2.61-1.91-2.2-3.77,1.69-7.49-1.81-11.6-8.43-14.55-5.51-2.46-10.59-5.87-15.77-9a4.37,4.37,0,0,0-5.25-.08C171.3,55.4,164,59.61,156.6,63.72A4.2,4.2,0,0,0,154.15,68c.08,28.95.05,57.88.05,86.83v26.8a10.77,10.77,0,0,1-6.25-.18V154.84c0-28.93,0-57.88.05-86.81a4.23,4.23,0,0,0-2.45-4.32c-7.38-4.09-14.7-8.31-21.91-12.67a4.37,4.37,0,0,0-5.25.08c-5.18,3.15-10.26,6.57-15.76,9-6.64,3-10.14,7.06-8.45,14.55.42,1.88-.59,2.88-2.2,3.79-6.14,3.42-12.12,7.12-18.3,10.46a4.27,4.27,0,0,0-2.58,4.58c.15,3.79-.07,7.59.08,11.38a3.66,3.66,0,0,1-2.2,3.82c-6.34,3.52-12.56,7.24-18.86,10.8a3.76,3.76,0,0,0-2.3,3.75q.13,31.53,0,63.08a4,4,0,0,0,2.41,4c6.25,3.45,12.35,7.16,18.61,10.61A3.9,3.9,0,0,1,71.2,205c-.17,3.79.08,7.59-.1,11.36a4,4,0,0,0,2.45,4.34c4,2.1,7.69,5,11.85,6.67,7,2.83,10.44,7.27,8.83,15-.34,1.58.37,2.53,1.81,3.35q11.59,6.54,23,13.31a3.47,3.47,0,0,0,4.06,0c7.34-4.36,14.72-8.68,22.19-12.82a4.43,4.43,0,0,0,2.67-4.53q-.08-26.15-.05-52.32a28.55,28.55,0,0,0,6.25-.07q0,26.2-.05,52.4a4.42,4.42,0,0,0,2.67,4.51c7.48,4.16,14.85,8.48,22.19,12.82a3.45,3.45,0,0,0,4.06,0q11.47-6.76,23-13.31c1.44-.8,2.15-1.78,1.81-3.34-1.61-7.71,1.83-12.14,8.83-15,4.16-1.71,7.83-4.59,11.85-6.67a4,4,0,0,0,2.45-4.34c-.18-3.79.07-7.59-.1-11.38a3.88,3.88,0,0,1,2.33-4.06c6.25-3.45,12.35-7.16,18.61-10.63a4,4,0,0,0,2.41-4Q254.18,154.82,254.31,123.27ZM97.76,98a3.59,3.59,0,0,1,4,3.74c0,2.43-1.46,3.7-3.87,3.92-2.38-.23-3.84-1.51-3.82-3.94A3.52,3.52,0,0,1,97.76,98ZM98,211.85c-2.35-.23-3.91-1.41-3.91-3.86a3.83,3.83,0,0,1,7.66-.2C101.89,210.25,100.35,211.49,98,211.85ZM140.66,238a3.53,3.53,0,0,1-2,3.64c-5.31,2.9-10.56,6-15.76,9.07a3.17,3.17,0,0,1-3.79-.05q-7.64-4.6-15.45-8.92a3.49,3.49,0,0,1-2.1-3.55c.1-6.39.07-12.79,0-19.18a3.81,3.81,0,0,1,1.71-3.49,9.31,9.31,0,1,0-10.81,0c3.29,2.41,1,5.45,2,8.85C89,221.15,84.2,218.4,79.44,215.7a1.72,1.72,0,0,1-1-1.81,4.27,4.27,0,0,0,0-1.31C76.95,205,79.61,200,87.07,197.2c3.79-1.41,7.19-5.43,10.78-5.45s7,3.91,10.81,5.4c7.21,2.83,10.38,7.56,8.82,15.32a21.39,21.39,0,0,0,0,5.18c.15,3.24-.05,5.9-3.1,8.36-4.09,3.29-3.44,9.71.55,13.21a9.35,9.35,0,0,0,13.13-.77c3.55-4,3.34-10.14-.94-13.26-2.11-1.53-2.46-3.13-2.43-5.38.08-6.39-.05-12.79.07-19.18a3.71,3.71,0,0,0-2.18-3.81c-6.34-3.54-12.56-7.27-18.87-10.81a3.46,3.46,0,0,1-2.08-3.55c.13-5.53.08-11.06,0-16.59a3.68,3.68,0,0,1,1.76-3.42,9.34,9.34,0,0,0,1.41-14,9.53,9.53,0,0,0-13.66,0,9.32,9.32,0,0,0,1.37,14,3.67,3.67,0,0,1,1.78,3.44q-.1,8.3,0,16.58a3.31,3.31,0,0,1-1.78,3.42q-8.1,4.53-16,9.25a3,3,0,0,1-3.54-.1c-5.21-3.08-10.44-6.14-15.76-9.07a3.53,3.53,0,0,1-2-3.62c.07-11.06.08-22.13,0-33.17a3.74,3.74,0,0,1,2.25-3.81q5.68-3.12,11.25-6.49a3.35,3.35,0,0,1,3.55-.12A9.17,9.17,0,0,0,85,133.21a9.33,9.33,0,1,0-18.15-3.74,3.85,3.85,0,0,1-2.36,3.4c-2.93,1.58-5.8,3.32-9.27,5.33,0-4.43,0-8.47,0-12.47,0-1,1-1.32,1.74-1.74,5.33-3.1,10.69-6.14,16-9.3a3,3,0,0,1,3.54,0c5,3,10,6,15.19,8.77,1.84,1,2.31,2.21,2.6,4.27.72,5.15-1.26,8.06-5.9,10.24-5.28,2.46-10.14,5.78-15.27,8.6a3.46,3.46,0,0,0-2,3.57c.13,5.51,0,11,.07,16.58a3.34,3.34,0,0,1-1.59,3.17c-3.75,2.67-5,6.55-3.72,10.49a9.35,9.35,0,0,0,17.72.3c1.44-4.11.22-8.11-3.65-10.81a3.29,3.29,0,0,1-1.54-3.18c.05-4.11.12-8.23,0-12.35a3.36,3.36,0,0,1,2.06-3.54c6.42-3.57,12.74-7.34,19.14-11,1.48-.82,2.41-1.76,2-3.55,0-.2,0-.44,0-.65-1.63-8,1.46-13.13,9.15-16.08,4.09-1.58,7.69-4.41,11.6-6.5a3.89,3.89,0,0,0,2.36-4c-.13-6.72,0-13.44-.08-20.17a3.88,3.88,0,0,1,1.79-3.74,9.12,9.12,0,0,0,1.49-13.9,9.34,9.34,0,0,0-13.61-.13A9.15,9.15,0,0,0,115.57,85a3.86,3.86,0,0,1,1.89,3.64q-.13,8.3,0,16.58a3.28,3.28,0,0,1-1.93,3.32q-7.95,4.43-15.74,9.1a3.27,3.27,0,0,1-3.84,0c-5.2-3.1-10.44-6.15-15.74-9.09-1.42-.8-1.63-1.84-1.89-3.35-1.39-7.71,1.12-13,8.8-15.61,2.3-.79,4.31-2.4,7-3.92-.17,3.59,1.27,6.69-2.43,9.37-4.21,3.07-4.09,9.55-.44,13.29a9.26,9.26,0,0,0,13.59-.22c3.54-3.84,3.34-10.12-.87-13.29-2.06-1.58-2.4-3.22-2.36-5.46q.13-8.93,0-17.89a3.26,3.26,0,0,1,1.91-3.32c5.3-2.93,10.54-6,15.76-9.07a2.94,2.94,0,0,1,3.49-.12c5.3,3.17,10.63,6.27,16,9.25a3.29,3.29,0,0,1,1.88,3.35q-.08,22.28,0,44.55a4.16,4.16,0,0,1,0,.65v60q-6.49-3.87-13.11-7.53a3.24,3.24,0,0,1-1.91-3.32q.15-8.27,0-16.58a3.86,3.86,0,0,1,1.91-3.64,9.15,9.15,0,0,0,1.22-13.95,9.31,9.31,0,0,0-13.59.15,9.12,9.12,0,0,0,1.49,13.9,3.9,3.9,0,0,1,1.79,3.72c-.07,6.72.05,13.44-.08,20.17a3.87,3.87,0,0,0,2.36,4c3.91,2.1,7.49,4.93,11.58,6.5s6.84,3.7,8.33,6.55V197.2a5.66,5.66,0,0,1,.05.79C140.58,211.31,140.61,224.64,140.66,238ZM94.09,154.85A3.54,3.54,0,0,1,98,151c2.38,0,3.6,1.54,3.89,3.89-.34,2.31-1.58,3.82-4,3.79A3.54,3.54,0,0,1,94.09,154.85Zm27.27,73.54a3.53,3.53,0,0,1,3.54,3.87,3.59,3.59,0,0,1-4,3.81c-2.38-.07-3.65-1.61-3.69-4.22C117.61,229.63,118.92,228.24,121.37,228.39Zm-49-97.78A3.53,3.53,0,0,1,76,126.49c2.38-.17,3.77,1.31,4.11,3.79-.23,2.25-1.31,3.82-3.82,3.86A3.47,3.47,0,0,1,72.4,130.62Zm6.2,46.92c-.17,2.38-1.39,3.92-3.82,3.94a3.84,3.84,0,0,1-.22-7.68C77,173.71,78.3,175.12,78.6,177.53Zm38.69-100a3.81,3.81,0,0,1,7.61-.13c.08,2.4-1.37,3.72-3.62,4.06C118.75,81.23,117.29,80,117.29,77.55Zm4.51,64.65c-2.26-.34-3.72-1.66-3.64-4.06a3.57,3.57,0,0,1,3.74-3.7,3.53,3.53,0,0,1,3.87,3.84C125.79,140.74,124.33,142,121.8,142.2ZM204.39,98a3.54,3.54,0,0,1,3.69,3.74c0,2.41-1.44,3.7-3.82,3.94-2.41-.23-3.91-1.51-3.86-3.94A3.57,3.57,0,0,1,204.39,98Zm-.23,113.87c-2.35-.37-3.89-1.61-3.75-4.06a3.83,3.83,0,0,1,7.66.18C208.06,210.44,206.5,211.63,204.16,211.86ZM247,182.31a3.5,3.5,0,0,1-2,3.62c-5.31,2.93-10.54,6-15.76,9.07a3,3,0,0,1-3.54.12q-7.95-4.75-16-9.25a3.31,3.31,0,0,1-1.78-3.42q.1-8.3,0-16.58a3.67,3.67,0,0,1,1.78-3.44,9.32,9.32,0,0,0,1.37-14,9.53,9.53,0,0,0-13.66,0,9.34,9.34,0,0,0,1.41,14,3.72,3.72,0,0,1,1.76,3.44c-.08,5.53-.13,11.06,0,16.58a3.47,3.47,0,0,1-2.08,3.57c-6.32,3.54-12.54,7.26-18.87,10.8a3.73,3.73,0,0,0-2.18,3.82c.12,6.39,0,12.79.07,19.18,0,2.25-.32,3.84-2.43,5.38-4.27,3.1-4.49,9.27-.94,13.24a9.34,9.34,0,0,0,13.13.79c4-3.52,4.64-9.92.55-13.23-3.05-2.46-3.25-5.11-3.1-8.35a21.53,21.53,0,0,0,0-5.2c-1.56-7.76,1.61-12.49,8.82-15.3,3.79-1.49,7.22-5.41,10.81-5.41s7,4,10.78,5.46c7.46,2.78,10.12,7.79,8.67,15.39a4.75,4.75,0,0,0,0,1.29,1.7,1.7,0,0,1-1,1.81c-4.76,2.72-9.52,5.46-15.05,8.63,1-3.42-1.27-6.44,2-8.85a9.31,9.31,0,1,0-10.81,0,3.78,3.78,0,0,1,1.71,3.47c-.07,6.4-.1,12.79,0,19.19a3.49,3.49,0,0,1-2.1,3.55q-7.79,4.32-15.45,8.92a3.19,3.19,0,0,1-3.79.05q-7.79-4.7-15.76-9.09a3.51,3.51,0,0,1-2-3.62c.05-13.34.08-26.67,0-40a6,6,0,0,1,.05-.79V186.9c1.48-2.87,4.26-5,8.33-6.6s7.68-4.39,11.58-6.49a3.93,3.93,0,0,0,2.38-4.06c-.15-6.72,0-13.44-.1-20.15a3.94,3.94,0,0,1,1.79-3.74A9.12,9.12,0,0,0,187,132a9.31,9.31,0,0,0-13.59-.13,9.15,9.15,0,0,0,1.22,13.95,3.84,3.84,0,0,1,1.91,3.64c-.1,5.53-.1,11,0,16.58a3.22,3.22,0,0,1-1.91,3.3c-4.41,2.46-8.78,5-13.11,7.54V116.79a4.06,4.06,0,0,1,0-.65q.1-22.28,0-44.55a3.27,3.27,0,0,1,1.88-3.34c5.4-3,10.73-6.08,16-9.25a2.94,2.94,0,0,1,3.49.1c5.21,3.1,10.46,6.15,15.76,9.07a3.27,3.27,0,0,1,1.91,3.34c-.08,6-.08,11.92,0,17.89,0,2.25-.3,3.89-2.36,5.45-4.21,3.17-4.41,9.47-.87,13.29a9.26,9.26,0,0,0,13.59.22c3.65-3.72,3.77-10.21-.44-13.28-3.7-2.7-2.26-5.8-2.43-9.37,2.65,1.51,4.66,3.12,7,3.91,7.68,2.65,10.19,7.9,8.8,15.62-.27,1.51-.47,2.53-1.89,3.34-5.3,3-10.54,6-15.74,9.09a3.3,3.3,0,0,1-3.84.05q-7.79-4.7-15.74-9.12a3.26,3.26,0,0,1-1.93-3.3q.18-8.3,0-16.58a3.86,3.86,0,0,1,1.89-3.64,9.15,9.15,0,0,0,1.24-13.95,9.32,9.32,0,0,0-13.61.13,9.11,9.11,0,0,0,1.51,13.9,3.89,3.89,0,0,1,1.78,3.72c-.07,6.72.05,13.44-.08,20.17a3.87,3.87,0,0,0,2.36,4c3.91,2.1,7.51,4.93,11.6,6.5,7.69,3,10.78,8.06,9.15,16.09,0,.2,0,.44,0,.65-.37,1.78.57,2.72,2,3.55,6.4,3.62,12.72,7.39,19.14,11a3.38,3.38,0,0,1,2.06,3.55c-.13,4.12-.07,8.23,0,12.35a3.29,3.29,0,0,1-1.54,3.18c-3.87,2.7-5.1,6.7-3.65,10.81a9.35,9.35,0,0,0,17.72-.3c1.31-3.94,0-7.84-3.72-10.51a3.32,3.32,0,0,1-1.59-3.15c.05-5.53-.07-11.06.07-16.59a3.47,3.47,0,0,0-2-3.57c-5.13-2.82-10-6.14-15.27-8.6-4.64-2.18-6.62-5.08-5.9-10.24.28-2,.75-3.25,2.6-4.27,5.15-2.78,10.17-5.77,15.19-8.77a3,3,0,0,1,3.54,0c5.3,3.17,10.66,6.22,16,9.3.74.44,1.73.7,1.74,1.74.05,4,0,8,0,12.47-3.45-2-6.34-3.74-9.27-5.31a3.89,3.89,0,0,1-2.36-3.4,9.33,9.33,0,1,0-18.15,3.74c1.83,5.43,7.41,7.9,12.84,5.5a3.32,3.32,0,0,1,3.55.13c3.7,2.23,7.46,4.41,11.25,6.47a3.76,3.76,0,0,1,2.25,3.81C246.9,160.2,246.92,171.26,247,182.31Zm-42.71-23.58c-2.4.05-3.64-1.48-4-3.77.28-2.35,1.51-3.89,3.89-3.89a3.83,3.83,0,0,1,.08,7.66ZM184.9,231.86c0,2.6-1.31,4.14-3.69,4.21a3.57,3.57,0,0,1-4-3.81,3.52,3.52,0,0,1,3.54-3.86C183.24,228.26,184.54,229.65,184.9,231.86Zm-8.52-93.57a3.53,3.53,0,0,1,3.87-3.84,3.56,3.56,0,0,1,3.74,3.7c.08,2.4-1.37,3.72-3.64,4C177.82,142,176.36,140.76,176.38,138.29Zm4.49-56.82c-2.25-.32-3.7-1.64-3.62-4a3.81,3.81,0,0,1,7.61.13C184.86,80,183.4,81.23,180.87,81.47Zm46.72,92.34a3.84,3.84,0,0,1-.22,7.68c-2.43,0-3.65-1.56-3.82-4C223.85,175.14,225.14,173.73,227.59,173.81Zm2.16-43.18a3.45,3.45,0,0,1-3.84,3.5c-2.51,0-3.59-1.61-3.82-3.86.34-2.48,1.73-3.94,4.11-3.79A3.55,3.55,0,0,1,229.75,130.63Z"/><path class="cls-2" d="M320.9,193.55a5.39,5.39,0,0,1-.83,1.75,3.17,3.17,0,0,1-1.66,1,13.33,13.33,0,0,1-3.13.45q-2,.1-5.17.1-2.55,0-4.37,0t-3.1-.16a10.49,10.49,0,0,1-2.07-.38,4.86,4.86,0,0,1-1.34-.64,2.64,2.64,0,0,1-.83-.93,7.94,7.94,0,0,1-.54-1.37l-24.58-73.23a19.53,19.53,0,0,1-.92-3.64,2.12,2.12,0,0,1,.64-2,4.91,4.91,0,0,1,2.71-.83q1.92-.16,5.36-.16,2.94,0,4.6.13a10.32,10.32,0,0,1,2.55.45,2.18,2.18,0,0,1,1.25,1,9.89,9.89,0,0,1,.67,1.6l20.11,63.71h.06L330,116.94a6.65,6.65,0,0,1,.64-1.76,2.56,2.56,0,0,1,1.31-1.05,8.93,8.93,0,0,1,2.65-.51q1.72-.13,4.72-.13a41.58,41.58,0,0,1,4.57.19,3.33,3.33,0,0,1,2.23.92,2.5,2.5,0,0,1,.38,2.08,24,24,0,0,1-1,3.58Z"/><path class="cls-2" d="M374,194.19a1.77,1.77,0,0,1-.41,1.15,2.92,2.92,0,0,1-1.37.83,13.39,13.39,0,0,1-2.55.51,43.33,43.33,0,0,1-8.14,0,13.46,13.46,0,0,1-2.59-.51,2.91,2.91,0,0,1-1.37-.83,1.77,1.77,0,0,1-.42-1.15v-78a1.77,1.77,0,0,1,.42-1.15,2.92,2.92,0,0,1,1.4-.83,14.16,14.16,0,0,1,2.58-.51,34.79,34.79,0,0,1,4-.19,35.49,35.49,0,0,1,4.09.19,13.39,13.39,0,0,1,2.55.51,2.92,2.92,0,0,1,1.37.83,1.77,1.77,0,0,1,.41,1.15Z"/><path class="cls-2" d="M446.92,120.77a27,27,0,0,1-.16,3.16,8.61,8.61,0,0,1-.48,2.11,2.8,2.8,0,0,1-.8,1.18,1.65,1.65,0,0,1-1.05.38H423.75v66.59a1.77,1.77,0,0,1-.41,1.15,2.92,2.92,0,0,1-1.37.83,13.44,13.44,0,0,1-2.58.51,43,43,0,0,1-8.11,0,13.46,13.46,0,0,1-2.59-.51,2.91,2.91,0,0,1-1.37-.83,1.77,1.77,0,0,1-.42-1.15V127.6H386.21a1.61,1.61,0,0,1-1.09-.38,3,3,0,0,1-.77-1.18,8.55,8.55,0,0,1-.48-2.11,26.58,26.58,0,0,1-.16-3.16,28.12,28.12,0,0,1,.16-3.26,8.63,8.63,0,0,1,.48-2.14,2.71,2.71,0,0,1,.77-1.15,1.71,1.71,0,0,1,1.09-.35h58.22a1.75,1.75,0,0,1,1.05.35,2.56,2.56,0,0,1,.8,1.15,8.7,8.7,0,0,1,.48,2.14A28.53,28.53,0,0,1,446.92,120.77Z"/><path class="cls-2" d="M513.25,120.77a27,27,0,0,1-.16,3.16,8.61,8.61,0,0,1-.48,2.11,2.8,2.8,0,0,1-.8,1.18,1.65,1.65,0,0,1-1.05.38H490.08v66.59a1.77,1.77,0,0,1-.41,1.15,2.92,2.92,0,0,1-1.37.83,13.44,13.44,0,0,1-2.58.51,43,43,0,0,1-8.11,0,13.46,13.46,0,0,1-2.59-.51,2.91,2.91,0,0,1-1.37-.83,1.77,1.77,0,0,1-.42-1.15V127.6H452.54a1.61,1.61,0,0,1-1.09-.38,3,3,0,0,1-.77-1.18,8.55,8.55,0,0,1-.48-2.11,26.58,26.58,0,0,1-.16-3.16,28.12,28.12,0,0,1,.16-3.26,8.63,8.63,0,0,1,.48-2.14,2.71,2.71,0,0,1,.77-1.15,1.71,1.71,0,0,1,1.09-.35h58.22a1.75,1.75,0,0,1,1.05.35,2.56,2.56,0,0,1,.8,1.15,8.7,8.7,0,0,1,.48,2.14A28.53,28.53,0,0,1,513.25,120.77Z"/><path class="cls-2" d="M593.82,154.22a61.14,61.14,0,0,1-2.55,18.39,37.06,37.06,0,0,1-7.6,13.76A32.7,32.7,0,0,1,571.19,195,46.19,46.19,0,0,1,554,198a50.78,50.78,0,0,1-16.82-2.52,29.16,29.16,0,0,1-12-7.69A32.93,32.93,0,0,1,518,174.59a66.14,66.14,0,0,1-2.39-18.9,59.27,59.27,0,0,1,2.55-18,36.85,36.85,0,0,1,7.6-13.63,33.17,33.17,0,0,1,12.48-8.62,45.92,45.92,0,0,1,17.27-3,50.52,50.52,0,0,1,16.57,2.49,29.15,29.15,0,0,1,12,7.66,33.37,33.37,0,0,1,7.28,13.05A62.87,62.87,0,0,1,593.82,154.22Zm-17.62.89a63.14,63.14,0,0,0-1-11.84,25.5,25.5,0,0,0-3.48-9.13,16.62,16.62,0,0,0-6.54-5.87,22.46,22.46,0,0,0-10.21-2.07,20.89,20.89,0,0,0-10.34,2.33,19,19,0,0,0-6.7,6.23,25.71,25.71,0,0,0-3.61,9.1,55.44,55.44,0,0,0-1.05,11,65.7,65.7,0,0,0,1,12.16,26.19,26.19,0,0,0,3.45,9.23,15.84,15.84,0,0,0,6.51,5.84,23.21,23.21,0,0,0,10.28,2,21.12,21.12,0,0,0,10.34-2.3,18.55,18.55,0,0,0,6.7-6.26,26.39,26.39,0,0,0,3.61-9.23A57.06,57.06,0,0,0,576.2,155.12Z"/><path class="cls-2" d="M669.22,194.32a2.48,2.48,0,0,1-.26,1.18,2,2,0,0,1-1.21.8,12.13,12.13,0,0,1-2.81.45q-1.85.13-5,.13-2.68,0-4.28-.13a9.51,9.51,0,0,1-2.52-.48,2.73,2.73,0,0,1-1.31-.89,5,5,0,0,1-.64-1.31l-7.41-18.45q-1.34-3.13-2.62-5.55a17.72,17.72,0,0,0-2.84-4.05,10.38,10.38,0,0,0-3.61-2.46,12.48,12.48,0,0,0-4.72-.83h-5.23v31.47a1.77,1.77,0,0,1-.41,1.15,2.92,2.92,0,0,1-1.37.83,13.39,13.39,0,0,1-2.55.51,43.33,43.33,0,0,1-8.14,0,13.46,13.46,0,0,1-2.59-.51,2.69,2.69,0,0,1-1.34-.83,1.87,1.87,0,0,1-.38-1.15v-75a5.11,5.11,0,0,1,1.44-4.05,5.22,5.22,0,0,1,3.54-1.24H634.3q3.26,0,5.36.13t3.83.32a34.81,34.81,0,0,1,9,2.43,21.52,21.52,0,0,1,6.77,4.5,18.74,18.74,0,0,1,4.24,6.58,24.06,24.06,0,0,1,1.47,8.72,25.58,25.58,0,0,1-1.05,7.56,19.4,19.4,0,0,1-3.1,6.1,20.37,20.37,0,0,1-5,4.66,27.3,27.3,0,0,1-6.83,3.19,19,19,0,0,1,3.48,2.17,18.37,18.37,0,0,1,3.06,3.1,29.77,29.77,0,0,1,2.71,4.15,53.68,53.68,0,0,1,2.49,5.27l7,16.28q1,2.43,1.28,3.54A6.85,6.85,0,0,1,669.22,194.32Zm-21.64-56.05a12.26,12.26,0,0,0-1.85-6.89,10.07,10.07,0,0,0-6.06-4,23.25,23.25,0,0,0-2.9-.51,40.81,40.81,0,0,0-4.5-.19h-7.53v23.43h8.55a20.48,20.48,0,0,0,6.26-.86,12.47,12.47,0,0,0,4.47-2.43,9.92,9.92,0,0,0,2.68-3.73A12.63,12.63,0,0,0,647.58,138.26Z"/><path class="cls-2" d="M698.39,194.19a1.77,1.77,0,0,1-.41,1.15,2.92,2.92,0,0,1-1.37.83,13.39,13.39,0,0,1-2.55.51,43.33,43.33,0,0,1-8.14,0,13.46,13.46,0,0,1-2.59-.51,2.91,2.91,0,0,1-1.37-.83,1.77,1.77,0,0,1-.42-1.15v-78A1.77,1.77,0,0,1,682,115a2.92,2.92,0,0,1,1.4-.83,14.16,14.16,0,0,1,2.58-.51,34.79,34.79,0,0,1,4-.19,35.49,35.49,0,0,1,4.09.19,13.39,13.39,0,0,1,2.55.51A2.92,2.92,0,0,1,698,115a1.77,1.77,0,0,1,.41,1.15Z"/><path class="cls-2" d="M784.07,190.23a22.27,22.27,0,0,1,1,3.64,2.19,2.19,0,0,1-.51,2,4.16,4.16,0,0,1-2.49.83q-1.79.16-4.92.16t-5.07-.1a12.55,12.55,0,0,1-2.78-.38,2.53,2.53,0,0,1-1.34-.8,4.37,4.37,0,0,1-.64-1.34l-5.55-16.6h-31l-5.23,16.15a5.14,5.14,0,0,1-.67,1.5,2.73,2.73,0,0,1-1.34,1,9.84,9.84,0,0,1-2.62.48q-1.69.13-4.44.13a42.49,42.49,0,0,1-4.6-.19,3.51,3.51,0,0,1-2.3-.93,2.49,2.49,0,0,1-.45-2.07,20.8,20.8,0,0,1,1-3.58l25.47-73.29a6.43,6.43,0,0,1,.89-1.76,3.17,3.17,0,0,1,1.63-1,12.91,12.91,0,0,1,3.1-.45q2-.1,5.23-.09,3.77,0,6,.09a16.08,16.08,0,0,1,3.48.45,3.32,3.32,0,0,1,1.79,1.05,6.21,6.21,0,0,1,.92,1.92Zm-37.92-60.59h-.06L734.4,164.76h23.43Z"/><path class="cls-2" d="M676.94,248.88a.57.57,0,0,1-.08.3.59.59,0,0,1-.29.21,2.48,2.48,0,0,1-.59.14,7.52,7.52,0,0,1-1,0,8.32,8.32,0,0,1-.86,0,1.9,1.9,0,0,1-.59-.15,1.08,1.08,0,0,1-.39-.3,1.87,1.87,0,0,1-.27-.48l-3.66-7.79a26.48,26.48,0,0,0-1.36-2.48,8.37,8.37,0,0,0-1.76-2,7.77,7.77,0,0,0-2.48-1.35,10.83,10.83,0,0,0-3.48-.5h-4.06v14.47a.45.45,0,0,1-.09.27.62.62,0,0,1-.3.2,3,3,0,0,1-.56.12,6.51,6.51,0,0,1-.89,0,6.59,6.59,0,0,1-.88,0,3,3,0,0,1-.58-.12.61.61,0,0,1-.3-.2.45.45,0,0,1-.09-.27V218.87a1.3,1.3,0,0,1,.58-1.23,2.22,2.22,0,0,1,1.12-.33h7.36q1.45,0,2.41.06c.64,0,1.22.1,1.74.16a15.36,15.36,0,0,1,3.91,1,9.12,9.12,0,0,1,2.75,1.77,6.82,6.82,0,0,1,1.62,2.38,7.68,7.68,0,0,1,.53,2.87,7.06,7.06,0,0,1-.54,2.84,6.76,6.76,0,0,1-1.54,2.21,9.68,9.68,0,0,1-2.39,1.65,17.53,17.53,0,0,1-3.06,1.17,8.41,8.41,0,0,1,1.8.92,8,8,0,0,1,1.48,1.32,12,12,0,0,1,1.29,1.78q.6,1,1.21,2.25l3.66,7.5q.39.87.5,1.19A1.7,1.7,0,0,1,676.94,248.88Zm-6.51-23a5.48,5.48,0,0,0-1.12-3.49,6.49,6.49,0,0,0-3.75-2,14.07,14.07,0,0,0-1.91-.29q-1-.09-2.69-.09h-4.84V231.8h5.63a14.55,14.55,0,0,0,3.91-.46,8.29,8.29,0,0,0,2.71-1.25,4.89,4.89,0,0,0,1.57-1.86A5.36,5.36,0,0,0,670.43,225.92Z"/><path class="cls-2" d="M706.87,236.54a1.3,1.3,0,0,1-.58,1.23,2.22,2.22,0,0,1-1.12.33H686.5a13.25,13.25,0,0,0,.5,3.77,7,7,0,0,0,1.65,2.89,7.46,7.46,0,0,0,3,1.85,13.86,13.86,0,0,0,4.54.65,19.38,19.38,0,0,0,3.42-.27,23.49,23.49,0,0,0,2.62-.61q1.11-.33,1.82-.61a3.36,3.36,0,0,1,1-.27.74.74,0,0,1,.33.07.56.56,0,0,1,.24.24,1.35,1.35,0,0,1,.14.41,3.64,3.64,0,0,1,0,.62,1.87,1.87,0,0,1,0,.33,2.48,2.48,0,0,1-.08.3,1,1,0,0,1-.14.26,1.38,1.38,0,0,1-.24.25,4.91,4.91,0,0,1-.94.43,16.31,16.31,0,0,1-2.06.62q-1.27.31-3,.56a24.84,24.84,0,0,1-3.62.25,18.55,18.55,0,0,1-5.63-.78,10.89,10.89,0,0,1-4.12-2.31,9.77,9.77,0,0,1-2.53-3.79,14.61,14.61,0,0,1-.86-5.24,13.83,13.83,0,0,1,.89-5.11,10.54,10.54,0,0,1,2.56-3.83,11.18,11.18,0,0,1,4-2.41,15.55,15.55,0,0,1,5.22-.83,14.63,14.63,0,0,1,5.27.84,10,10,0,0,1,3.59,2.27,8.7,8.7,0,0,1,2.06,3.31,12.08,12.08,0,0,1,.65,4Zm-3.72-.87a7.12,7.12,0,0,0-2-5.59,8.44,8.44,0,0,0-6.08-2,9.57,9.57,0,0,0-3.62.63,8.1,8.1,0,0,0-2.63,1.68,7.19,7.19,0,0,0-1.65,2.42,8.77,8.77,0,0,0-.67,2.87Z"/><path class="cls-2" d="M729.06,247.59a2.74,2.74,0,0,1-.11.84,1.08,1.08,0,0,1-.33.51,2.36,2.36,0,0,1-.67.35,6.63,6.63,0,0,1-1,.27q-.58.11-1.21.17t-1.24.06a11.6,11.6,0,0,1-3.45-.45A5.61,5.61,0,0,1,718.7,248a5.28,5.28,0,0,1-1.32-2.3,11.72,11.72,0,0,1-.41-3.28v-14h-4.09a.8.8,0,0,1-.67-.31,1.49,1.49,0,0,1-.24-.93,2.24,2.24,0,0,1,.06-.56,1.11,1.11,0,0,1,.18-.4.73.73,0,0,1,.29-.24.91.91,0,0,1,.38-.07H717v-5.51a.51.51,0,0,1,.08-.27.57.57,0,0,1,.29-.21,2.09,2.09,0,0,1,.56-.12,8.29,8.29,0,0,1,.86,0,8.7,8.7,0,0,1,.89,0,1.89,1.89,0,0,1,.54.12.69.69,0,0,1,.29.21.45.45,0,0,1,.09.27v5.51h7.57a.91.91,0,0,1,.38.07.74.74,0,0,1,.29.24,1.15,1.15,0,0,1,.18.4,2.29,2.29,0,0,1,.06.56,1.44,1.44,0,0,1-.26.93.81.81,0,0,1-.65.31h-7.57V242a7,7,0,0,0,.89,3.9,3.62,3.62,0,0,0,3.25,1.34,6.39,6.39,0,0,0,1.32-.12,9.75,9.75,0,0,0,1-.27l.77-.27a1.58,1.58,0,0,1,.56-.12.71.71,0,0,1,.27,0,.4.4,0,0,1,.2.19,1.24,1.24,0,0,1,.12.35A2.53,2.53,0,0,1,729.06,247.59Z"/><path class="cls-2" d="M755.51,248.93a.44.44,0,0,1-.2.38,1.35,1.35,0,0,1-.52.2,4.74,4.74,0,0,1-.86.06,5.34,5.34,0,0,1-.88-.06,1.41,1.41,0,0,1-.56-.2.44.44,0,0,1-.2-.38v-2.51a13.93,13.93,0,0,1-4.07,2.53,12.29,12.29,0,0,1-4.62.89,14.89,14.89,0,0,1-3.86-.46,8.73,8.73,0,0,1-2.89-1.32A6,6,0,0,1,735,246a5.8,5.8,0,0,1-.64-2.73,5.61,5.61,0,0,1,.94-3.24,7.27,7.27,0,0,1,2.66-2.3,14.61,14.61,0,0,1,4.15-1.38,29,29,0,0,1,5.39-.46h4.36V234a8.14,8.14,0,0,0-.36-2.54,4.25,4.25,0,0,0-1.18-1.85,5.23,5.23,0,0,0-2.12-1.12,11.71,11.71,0,0,0-3.18-.37,13.64,13.64,0,0,0-3.27.36,18.4,18.4,0,0,0-2.54.81q-1.09.45-1.8.81a2.73,2.73,0,0,1-1,.36,1.06,1.06,0,0,1-.33,0,.53.53,0,0,1-.26-.19.84.84,0,0,1-.15-.35,2.39,2.39,0,0,1,0-.51,3.07,3.07,0,0,1,.09-.83,1.34,1.34,0,0,1,.47-.62,6.22,6.22,0,0,1,1.35-.73,18.11,18.11,0,0,1,2.22-.78,22.11,22.11,0,0,1,2.71-.58,19.1,19.1,0,0,1,2.91-.22,17.38,17.38,0,0,1,4.75.56,8.11,8.11,0,0,1,3.13,1.6,5.81,5.81,0,0,1,1.71,2.57,10.82,10.82,0,0,1,.51,3.46Zm-3.6-10.6h-5a19.92,19.92,0,0,0-3.81.32,9.07,9.07,0,0,0-2.72.94,4.37,4.37,0,0,0-1.62,1.49,3.74,3.74,0,0,0-.53,2,3.71,3.71,0,0,0,1.5,3.09,6.79,6.79,0,0,0,4.22,1.15,9,9,0,0,0,4-.91,17.42,17.42,0,0,0,4-2.79Z"/><path class="cls-2" d="M770.64,218.89a2,2,0,0,1-.51,1.61,3.06,3.06,0,0,1-1.88.42,3,3,0,0,1-1.83-.41,2.8,2.8,0,0,1,0-3.21,3.06,3.06,0,0,1,1.88-.42,3,3,0,0,1,1.83.41A2,2,0,0,1,770.64,218.89Zm-.54,30a.45.45,0,0,1-.09.27.61.61,0,0,1-.29.2,2.65,2.65,0,0,1-.54.12,6.51,6.51,0,0,1-.89,0,6.25,6.25,0,0,1-.86,0,3,3,0,0,1-.56-.12.53.53,0,0,1-.29-.2.52.52,0,0,1-.08-.27V226.46a.52.52,0,0,1,.08-.27.58.58,0,0,1,.29-.21,2.09,2.09,0,0,1,.56-.12,8.46,8.46,0,0,1,.86,0,8.8,8.8,0,0,1,.89,0,1.88,1.88,0,0,1,.54.12.69.69,0,0,1,.29.21.45.45,0,0,1,.09.27Z"/><path class="cls-2" d="M784.77,248.93a.45.45,0,0,1-.09.27.61.61,0,0,1-.29.2,2.65,2.65,0,0,1-.54.12,6.51,6.51,0,0,1-.89,0,6.25,6.25,0,0,1-.86,0,3,3,0,0,1-.56-.12.53.53,0,0,1-.29-.2.52.52,0,0,1-.08-.27V215.47a.52.52,0,0,1,.08-.27.58.58,0,0,1,.29-.21,2.09,2.09,0,0,1,.56-.12,8.32,8.32,0,0,1,.86,0,8.66,8.66,0,0,1,.89,0,1.88,1.88,0,0,1,.54.12.69.69,0,0,1,.29.21.45.45,0,0,1,.09.27Z"/></svg>